<?xml version="1.0" encoding="UTF-8" standalone="no"?>
<!-- Created with Inkscape (http://www.inkscape.org/) -->

<svg
   version="1.1"
   id="svg2"
   width="797.33331"
   height="768"
   viewBox="0 0 797.33331 768"
   xmlns="http://www.w3.org/2000/svg"
   xmlns:svg="http://www.w3.org/2000/svg">
  <defs
     id="defs6" />
  <g
     id="g8"
     transform="matrix(1.3333333,0,0,1.3333333,0,1.92e-5)">
    <g
       id="g10">
      <path
         d="M 0.219,0 H 597.781 V 576 H 0.219 Z"
         style="fill:#ffffff;fill-opacity:1;fill-rule:nonzero;stroke:none"
         id="path12" />
      <g
         id="g14">
        <path
           d="m 306.559,113.723 c 8.367,0 16.816,0 25.23,0"
           style="fill:none;stroke:#000000;stroke-width:0.99844;stroke-linecap:butt;stroke-linejoin:miter;stroke-miterlimit:4;stroke-dasharray:none;stroke-opacity:1"
           id="path16" />
      </g>
      <g
         id="g18">
        <path
           d="m 332.043,110.227 9.984,3.496 -9.984,3.492 z"
           style="fill:#000000;fill-opacity:1;fill-rule:nonzero;stroke:#000000;stroke-width:0.99844;stroke-linecap:butt;stroke-linejoin:miter;stroke-miterlimit:4;stroke-dasharray:none;stroke-opacity:1"
           id="path20" />
      </g>
      <g
         id="g22">
        <path
           d="m 180.434,141 c 0,22.844 0,55.355 0,78.637"
           style="fill:none;stroke:#000000;stroke-width:0.99844;stroke-linecap:butt;stroke-linejoin:miter;stroke-miterlimit:4;stroke-dasharray:none;stroke-opacity:1"
           id="path24" />
      </g>
      <g
         id="g26">
        <path
           d="m 183.93,219.945 -3.496,9.985 -3.493,-9.985 z"
           style="fill:#000000;fill-opacity:1;fill-rule:nonzero;stroke:#000000;stroke-width:0.99844;stroke-linecap:butt;stroke-linejoin:miter;stroke-miterlimit:4;stroke-dasharray:none;stroke-opacity:1"
           id="path28" />
      </g>
      <g
         id="g30">
        <path
           d="m 306.559,248.512 c 8.367,0 16.816,0 25.23,0"
           style="fill:none;stroke:#000000;stroke-width:0.99844;stroke-linecap:butt;stroke-linejoin:miter;stroke-miterlimit:4;stroke-dasharray:none;stroke-opacity:1"
           id="path32" />
      </g>
      <g
         id="g34">
        <path
           d="m 332.043,245.016 9.984,3.496 -9.984,3.496 z"
           style="fill:#000000;fill-opacity:1;fill-rule:nonzero;stroke:#000000;stroke-width:0.99844;stroke-linecap:butt;stroke-linejoin:miter;stroke-miterlimit:4;stroke-dasharray:none;stroke-opacity:1"
           id="path36" />
      </g>
      <g
         id="g38">
        <path
           d="m 180.434,267.023 c 0,7.489 0,16.309 0,24.598"
           style="fill:none;stroke:#000000;stroke-width:0.99844;stroke-linecap:butt;stroke-linejoin:miter;stroke-miterlimit:4;stroke-dasharray:none;stroke-opacity:1"
           id="path40" />
      </g>
      <g
         id="g42">
        <path
           d="m 183.93,291.715 -3.496,9.984 -3.493,-9.984 z"
           style="fill:#000000;fill-opacity:1;fill-rule:nonzero;stroke:#000000;stroke-width:0.99844;stroke-linecap:butt;stroke-linejoin:miter;stroke-miterlimit:4;stroke-dasharray:none;stroke-opacity:1"
           id="path44" />
      </g>
      <g
         id="g46">
        <path
           d="m 306.559,320.398 c 8.367,0 16.816,0 25.23,0"
           style="fill:none;stroke:#000000;stroke-width:0.99844;stroke-linecap:butt;stroke-linejoin:miter;stroke-miterlimit:4;stroke-dasharray:none;stroke-opacity:1"
           id="path48" />
      </g>
      <g
         id="g50">
        <path
           d="m 332.043,316.906 9.984,3.492 -9.984,3.497 z"
           style="fill:#000000;fill-opacity:1;fill-rule:nonzero;stroke:#000000;stroke-width:0.99844;stroke-linecap:butt;stroke-linejoin:miter;stroke-miterlimit:4;stroke-dasharray:none;stroke-opacity:1"
           id="path52" />
      </g>
      <g
         id="g54">
        <path
           d="m 180.434,338.914 c 0,7.488 0,16.305 0,24.598"
           style="fill:none;stroke:#000000;stroke-width:0.99844;stroke-linecap:butt;stroke-linejoin:miter;stroke-miterlimit:4;stroke-dasharray:none;stroke-opacity:1"
           id="path56" />
      </g>
      <g
         id="g58">
        <path
           d="m 183.93,363.602 -3.496,9.984 -3.493,-9.984 z"
           style="fill:#000000;fill-opacity:1;fill-rule:nonzero;stroke:#000000;stroke-width:0.99844;stroke-linecap:butt;stroke-linejoin:miter;stroke-miterlimit:4;stroke-dasharray:none;stroke-opacity:1"
           id="path60" />
      </g>
      <g
         id="g62">
        <path
           d="m 180.434,410.578 c 0,16.047 0,40.074 0,61.348"
           style="fill:none;stroke:#000000;stroke-width:0.99844;stroke-linecap:butt;stroke-linejoin:miter;stroke-miterlimit:4;stroke-dasharray:none;stroke-opacity:1"
           id="path64" />
      </g>
      <g
         id="g66">
        <path
           d="m 183.93,472.113 -3.496,9.985 -3.493,-9.985 z"
           style="fill:#000000;fill-opacity:1;fill-rule:nonzero;stroke:#000000;stroke-width:0.99844;stroke-linecap:butt;stroke-linejoin:miter;stroke-miterlimit:4;stroke-dasharray:none;stroke-opacity:1"
           id="path68" />
      </g>
      <g
         id="g70">
        <path
           d="m 306.559,392.285 c 8.367,0 16.816,0 25.23,0"
           style="fill:none;stroke:#000000;stroke-width:0.99844;stroke-linecap:butt;stroke-linejoin:miter;stroke-miterlimit:4;stroke-dasharray:none;stroke-opacity:1"
           id="path72" />
      </g>
      <g
         id="g74">
        <path
           d="m 332.043,388.793 9.984,3.492 -9.984,3.496 z"
           style="fill:#000000;fill-opacity:1;fill-rule:nonzero;stroke:#000000;stroke-width:0.99844;stroke-linecap:butt;stroke-linejoin:miter;stroke-miterlimit:4;stroke-dasharray:none;stroke-opacity:1"
           id="path76" />
      </g>
      <g
         id="g78">
        <path
           d="m 23.516,68.793 c 0,0 -9.653,0 -9.653,0 -4.828,0 -9.652,4.824 -9.652,9.652 0,0 0,70.555 0,70.555 0,4.828 4.824,9.652 9.652,9.652 0,0 9.653,0 9.653,0 4.824,0 9.648,-4.824 9.648,-9.652 0,0 0,-70.555 0,-70.555 0,-4.828 -4.824,-9.652 -9.648,-9.652"
           style="fill:#bcd2ee;fill-opacity:1;fill-rule:nonzero;stroke:#bcd2ee;stroke-width:0.99844;stroke-linecap:butt;stroke-linejoin:miter;stroke-miterlimit:4;stroke-dasharray:none;stroke-opacity:1"
           id="path80" />
      </g>
      <text
         xml:space="preserve"
         transform="rotate(-90,85.765637,65.082019)"
         style="font-variant:normal;font-weight:normal;font-size:11.9814px;font-family:'Nimbus Sans';-inkscape-font-specification:NimbusSans-Regular;writing-mode:lr-tb;fill:#000000;fill-opacity:1;fill-rule:nonzero;stroke:none"
         id="text84"><tspan
           x="0 3.3308418 9.9925251 16.654209 23.315891 26.586826 29.246708 32.577549 35.237431 41.288059 47.817947 51.0769 53.736782 60.398464"
           y="0"
           id="tspan82">Identification</tspan></text>
      <g
         id="g86">
        <path
           d="m 23.516,230.539 c 0,0 -9.653,0 -9.653,0 -4.828,0 -9.652,4.828 -9.652,9.652 0,0 0,160.414 0,160.414 0,4.829 4.824,9.653 9.652,9.653 0,0 9.653,0 9.653,0 4.824,0 9.648,-4.824 9.648,-9.653 0,0 0,-160.414 0,-160.414 0,-4.824 -4.824,-9.652 -9.648,-9.652"
           style="fill:#bcd2ee;fill-opacity:1;fill-rule:nonzero;stroke:#bcd2ee;stroke-width:0.99844;stroke-linecap:butt;stroke-linejoin:miter;stroke-miterlimit:4;stroke-dasharray:none;stroke-opacity:1"
           id="path88" />
      </g>
      <text
         xml:space="preserve"
         transform="rotate(-90,185.79298,165.10936)"
         style="font-variant:normal;font-weight:normal;font-size:11.9814px;font-family:'Nimbus Sans';-inkscape-font-specification:NimbusSans-Regular;writing-mode:lr-tb;fill:#000000;fill-opacity:1;fill-rule:nonzero;stroke:none"
         id="text92"><tspan
           x="0 7.9916239 13.982347 17.852352 24.514036 31.17572 37.837402 40.497284 47.158966"
           y="0"
           id="tspan90">Screening</tspan></text>
      <g
         id="g94">
        <path
           d="m 23.516,464.176 c 0,0 -9.653,0 -9.653,0 -4.828,0 -9.652,4.824 -9.652,9.652 0,0 0,88.527 0,88.527 0,4.825 4.824,9.653 9.652,9.653 0,0 9.653,0 9.653,0 4.824,0 9.648,-4.828 9.648,-9.653 0,0 0,-88.527 0,-88.527 0,-4.828 -4.824,-9.652 -9.648,-9.652"
           style="fill:#bcd2ee;fill-opacity:1;fill-rule:nonzero;stroke:#bcd2ee;stroke-width:0.99844;stroke-linecap:butt;stroke-linejoin:miter;stroke-miterlimit:4;stroke-dasharray:none;stroke-opacity:1"
           id="path96" />
      </g>
      <text
         xml:space="preserve"
         transform="rotate(-90,282.50978,261.82616)"
         style="font-variant:normal;font-weight:normal;font-size:11.9814px;font-family:'Nimbus Sans';-inkscape-font-specification:NimbusSans-Regular;writing-mode:lr-tb;fill:#000000;fill-opacity:1;fill-rule:nonzero;stroke:none"
         id="text100"><tspan
           x="0 3.3308418 9.9925251 15.983248 18.643129 25.304811 31.966496 38.628178"
           y="0"
           id="tspan98">Included</tspan></text>
      <g
         id="g102">
        <path
           d="m 584.137,3.992 c 0,0 -519.852,0 -519.852,0 -4.828,0 -9.652,4.828 -9.652,9.653 0,0 0,9.652 0,9.652 0,4.824 4.824,9.652 9.652,9.652 0,0 519.852,0 519.852,0 4.828,0 9.652,-4.828 9.652,-9.652 0,0 0,-9.652 0,-9.652 0,-4.825 -4.824,-9.653 -9.652,-9.653"
           style="fill:#ffc125;fill-opacity:1;fill-rule:nonzero;stroke:#ffc125;stroke-width:0.99844;stroke-linecap:butt;stroke-linejoin:miter;stroke-miterlimit:4;stroke-dasharray:none;stroke-opacity:1"
           id="path104" />
      </g>
      <text
         xml:space="preserve"
         transform="translate(176.18359,22.06643)"
         style="font-variant:normal;font-weight:normal;font-size:11.9814px;font-family:'Nimbus Sans';-inkscape-font-specification:NimbusSans-Regular;writing-mode:lr-tb;fill:#000000;fill-opacity:1;fill-rule:nonzero;stroke:none"
         id="text108"><tspan
           x="0 3.3308418 9.9925251 16.654209 23.315891 26.586826 29.246708 32.577549 35.237431 41.288059 47.817947 51.0769 53.736782 60.398464 67.06015 70.390991 77.052673 80.383514 83.714355 90.376038 96.929893 105.58049 108.91134 114.86611 118.14903 124.81071 131.4724 134.13228 140.74603 146.73676 150.0676 156.05832 158.7182 165.37988 168.71072 175.3125 181.84239 185.17323 191.83492 198.4966 205.15828 211.149 217.7388 223.72952 227.06036 233.72205 240.38373 247.04541 250.37625 254.24626 260.90796 267.56964 270.22952 276.22025 279.34738 286.00906 290.05881"
           y="0"
           id="tspan106">Identification of new studies via databases and registers</tspan></text>
      <g
         id="g110">
        <path
           d="M 54.633,86.766 H 306.238 V 140.68 H 54.633 Z"
           style="fill:none;stroke:#000000;stroke-width:0.99844;stroke-linecap:butt;stroke-linejoin:miter;stroke-miterlimit:4;stroke-dasharray:none;stroke-opacity:1"
           id="path112" />
      </g>
      <text
         xml:space="preserve"
         transform="translate(117.28125,102.93752)"
         style="font-variant:normal;font-weight:normal;font-size:11.9814px;font-family:'Nimbus Sans';-inkscape-font-specification:NimbusSans-Regular;writing-mode:lr-tb;fill:#000000;fill-opacity:1;fill-rule:nonzero;stroke:none"
         id="text120"><tspan
           x="0 8.5307884 15.192472 21.279047 27.940729 31.930552 38.592236 44.582958 47.913799 50.573681 57.235363 63.897045 70.558731 73.805702 76.465584 79.796425 82.456306 89.117989 95.779671 99.110512 102.44135 106.33533 112.99701 122.97755"
           y="0"
           id="tspan114">Records identified from:</tspan><tspan
           x="15.562495 24.045359 30.575245 33.906086 40.567772 47.229454 53.891136 59.881859 66.459671 72.450394 75.781235 79.771057 86.432739 89.76358 96.76075 100.09159 106.75327"
           y="14.378908"
           id="tspan116">Databases (n = 4)</tspan><tspan
           x="18.83984 27.370628 34.03231 40.693996 43.353878 49.344597 52.483738 59.14542 63.183167 69.173889 72.50473 76.494553 83.156235 86.487076 93.484245 96.815086 103.47677"
           y="28.757816"
           id="tspan118">Registers (n = 0)</tspan></text>
      <g
         id="g122">
        <path
           d="M 342.184,73.785 H 593.789 V 153.66 H 342.184 Z"
           style="fill:none;stroke:#000000;stroke-width:0.99844;stroke-linecap:butt;stroke-linejoin:miter;stroke-miterlimit:4;stroke-dasharray:none;stroke-opacity:1"
           id="path124" />
      </g>
      <text
         xml:space="preserve"
         transform="translate(373.32422,88.562524)"
         style="font-variant:normal;font-weight:normal;font-size:11.9814px;font-family:'Nimbus Sans';-inkscape-font-specification:NimbusSans-Regular;writing-mode:lr-tb;fill:#000000;fill-opacity:1;fill-rule:nonzero;stroke:none"
         id="text136"><tspan
           x="0 8.5307884 15.192472 21.279047 27.940729 31.930552 38.592236 44.582958 47.913799 51.759842 58.421524 68.402069 74.848083 80.599182 87.260864 93.922546 97.253387 103.91507 110.45694 113.66797 120.32965 124.19966 130.86134 134.19218 140.18291 146.17363 150.04364 156.70532 163.367 170.02869 172.68857 179.35025 186.01193"
           y="0"
           id="tspan126">Records removed before screening:</tspan><tspan
           x="25.710936 34.361538 41.02322 47.684906 50.344788 53.004665 59.079258 65.609146 68.760269 75.421951 78.752792 82.622795 89.284485 95.371056 102.03274 106.02256 112.68424 118.67496 122.00581 125.99563 132.65732 135.98816 142.98532 146.31616 152.97784 159.63953"
           y="14.375002"
           id="tspan128">Duplicate records (n = 27)</tspan><tspan
           x="-21.109377 -12.578588 -5.9169049 0.16966924 6.8313527 10.821174 17.482857 23.473579 26.804422 36.784966 43.446648 47.472416 53.211525 59.873211 66.534897 69.865738 76.52742 82.518143 85.848984 88.508865 95.170547 101.7843 104.44418 107.10406 113.76575 116.42563 123.08731 125.74719 132.40887 135.73972 142.17375 148.16447 151.49532 158.157 164.81868 168.00575 174.66743 184.64798 191.17787 194.44881 197.10867 203.77037"
           y="28.75391"
           id="tspan130">Records marked as ineligible by automation</tspan><tspan
           x="56.27734 59.464401 66.126083 72.787773 75.447647 81.43837 84.769211 88.759033 95.420723 98.751564 105.74873 109.07957 115.74125 122.40293 129.06462"
           y="43.13282"
           id="tspan132">tools (n = 249)</tspan><tspan
           x="-18.136721 -9.6059322 -2.9442484 3.1423256 9.8040094 13.79383 20.455513 26.446236 29.777079 33.623123 40.284805 50.26535 56.711365 62.46246 69.124146 75.785828 79.116669 82.327698 88.98938 92.979202 96.310043 102.86389 106.12285 112.78453 119.44621 123.43604 126.76688 130.63689 137.21469 143.87637 149.8671 156.52878 163.19048 169.18118 172.51204 176.50185 183.16354 186.49438 193.49155 196.82239 203.48407"
           y="57.50782"
           id="tspan134">Records removed for other reasons (n = 0)</tspan></text>
      <g
         id="g138">
        <path
           d="m 54.633,230.238 h 251.605 v 36.547 H 54.633 Z"
           style="fill:none;stroke:#000000;stroke-width:0.99844;stroke-linecap:butt;stroke-linejoin:miter;stroke-miterlimit:4;stroke-dasharray:none;stroke-opacity:1"
           id="path140" />
      </g>
      <text
         xml:space="preserve"
         transform="translate(131.91016,244.91799)"
         style="font-variant:normal;font-weight:normal;font-size:11.9814px;font-family:'Nimbus Sans';-inkscape-font-specification:NimbusSans-Regular;writing-mode:lr-tb;fill:#000000;fill-opacity:1;fill-rule:nonzero;stroke:none"
         id="text146"><tspan
           x="0 8.5307884 15.192472 21.279047 27.940729 31.930552 38.592236 44.582958 47.913799 53.904522 59.895245 63.741287 70.402969 77.064651 83.726341 90.388023"
           y="0"
           id="tspan142">Records screened</tspan><tspan
           x="24.382816 28.372637 35.034321 38.365162 45.362328 48.693169 55.354851 62.016533 68.678215"
           y="14.375002"
           id="tspan144">(n = 329)</tspan></text>
      <g
         id="g148">
        <path
           d="m 342.184,230.238 h 251.605 v 36.547 H 342.184 Z"
           style="fill:none;stroke:#000000;stroke-width:0.99844;stroke-linecap:butt;stroke-linejoin:miter;stroke-miterlimit:4;stroke-dasharray:none;stroke-opacity:1"
           id="path150" />
      </g>
      <text
         xml:space="preserve"
         transform="translate(420.37109,244.91799)"
         style="font-variant:normal;font-weight:normal;font-size:11.9814px;font-family:'Nimbus Sans';-inkscape-font-specification:NimbusSans-Regular;writing-mode:lr-tb;fill:#000000;fill-opacity:1;fill-rule:nonzero;stroke:none"
         id="text156"><tspan
           x="0 8.5307884 15.192472 21.279047 27.940729 31.930552 38.592236 44.582958 47.913799 54.204056 59.919205 65.909927 68.569809 75.231491 81.893173 88.554863"
           y="0"
           id="tspan152">Records excluded</tspan><tspan
           x="23.472656 27.462479 34.124161 37.455002 44.452168 47.783009 54.444691 61.106377 67.768059"
           y="14.375002"
           id="tspan154">(n = 325)</tspan></text>
      <g
         id="g158">
        <path
           d="m 54.633,302.129 h 251.605 v 36.543 H 54.633 Z"
           style="fill:none;stroke:#000000;stroke-width:0.99844;stroke-linecap:butt;stroke-linejoin:miter;stroke-miterlimit:4;stroke-dasharray:none;stroke-opacity:1"
           id="path160" />
      </g>
      <text
         xml:space="preserve"
         transform="translate(108.52344,316.80471)"
         style="font-variant:normal;font-weight:normal;font-size:11.9814px;font-family:'Nimbus Sans';-inkscape-font-specification:NimbusSans-Regular;writing-mode:lr-tb;fill:#000000;fill-opacity:1;fill-rule:nonzero;stroke:none"
         id="text166"><tspan
           x="0 8.5307884 15.192472 21.854156 28.515839 32.829159 36.16 42.150723 45.481564 51.472286 58.133972 64.795654 71.361488 78.02317 81.354012 84.684853 87.895882 94.557564 98.547386 101.87823 105.74823 112.30209 115.57302 119.56284 122.22272 128.71666 134.50371 141.16539"
           y="0"
           id="tspan162">Reports sought for retrieval</tspan><tspan
           x="51.101559 55.091377 61.753063 65.0839 72.08107 75.411911 82.073593 88.735275"
           y="14.378908"
           id="tspan164">(n = 18)</tspan></text>
      <g
         id="g168">
        <path
           d="m 342.184,302.129 h 251.605 v 36.543 H 342.184 Z"
           style="fill:none;stroke:#000000;stroke-width:0.99844;stroke-linecap:butt;stroke-linejoin:miter;stroke-miterlimit:4;stroke-dasharray:none;stroke-opacity:1"
           id="path170" />
      </g>
      <text
         xml:space="preserve"
         transform="translate(412.35547,316.80471)"
         style="font-variant:normal;font-weight:normal;font-size:11.9814px;font-family:'Nimbus Sans';-inkscape-font-specification:NimbusSans-Regular;writing-mode:lr-tb;fill:#000000;fill-opacity:1;fill-rule:nonzero;stroke:none"
         id="text176"><tspan
           x="0 8.5307884 15.192472 21.854156 28.515839 32.829159 36.16 42.150723 45.481564 52.14325 58.697098 62.027943 65.35878 69.216805 75.77066 79.041595 83.03141 85.691292 92.185234 97.936333 104.59801"
           y="0"
           id="tspan172">Reports not retrieved</tspan><tspan
           x="38.152348 42.14217 48.803852 52.134693 59.131859 62.4627 69.124382"
           y="14.378908"
           id="tspan174">(n = 5)</tspan></text>
      <g
         id="g178">
        <path
           d="m 54.633,374.016 h 251.605 v 36.543 H 54.633 Z"
           style="fill:none;stroke:#000000;stroke-width:0.99844;stroke-linecap:butt;stroke-linejoin:miter;stroke-miterlimit:4;stroke-dasharray:none;stroke-opacity:1"
           id="path180" />
      </g>
      <text
         xml:space="preserve"
         transform="translate(99.441406,388.69143)"
         style="font-variant:normal;font-weight:normal;font-size:11.9814px;font-family:'Nimbus Sans';-inkscape-font-specification:NimbusSans-Regular;writing-mode:lr-tb;fill:#000000;fill-opacity:1;fill-rule:nonzero;stroke:none"
         id="text186"><tspan
           x="0 8.5307884 15.192472 21.854156 28.515839 32.829159 36.16 42.150723 45.481564 52.14325 58.133972 64.124695 70.750435 76.741158 82.73188 89.393562 96.055244 99.386086 102.62108 109.28276 113.27258 116.60342 123.21718 125.87706 128.53694 135.19862 137.85851 144.52019 147.18007 149.83995 152.49983 155.99841"
           y="0"
           id="tspan182">Reports assessed for eligibility</tspan><tspan
           x="60.18359 64.173409 70.835091 74.165932 81.163101 84.493942 91.155624 97.817307"
           y="14.378908"
           id="tspan184">(n = 13)</tspan></text>
      <g
         id="g188">
        <path
           d="m 342.184,374.016 h 251.605 v 36.543 H 342.184 Z"
           style="fill:#ffffff;fill-opacity:1;fill-rule:nonzero;stroke:#000000;stroke-width:0.99844;stroke-linecap:butt;stroke-linejoin:miter;stroke-miterlimit:4;stroke-dasharray:none;stroke-opacity:1"
           id="path190" />
      </g>
      <text
         xml:space="preserve"
         transform="translate(419.91406,388.69143)"
         style="font-variant:normal;font-weight:normal;font-size:11.9814px;font-family:'Nimbus Sans';-inkscape-font-specification:NimbusSans-Regular;writing-mode:lr-tb;fill:#000000;fill-opacity:1;fill-rule:nonzero;stroke:none"
         id="text196"><tspan
           x="0 8.5307884 15.192472 21.854156 28.515839 32.829159 36.16 42.150723 45.481564 51.795788 57.498955 63.489677 66.149559 72.811241 79.472923 86.134605 92.796295"
           y="0"
           id="tspan192">Reports excluded:</tspan><tspan
           x="-35.335941 -28.26689 -21.605206 -15.614483 -8.9527988 -2.9620769 0.36876491 7.0304484 13.692132 17.022974 24.762987 33.413589 36.744431 44.736057 48.066898 56.717503 63.379185 67.369003 70.028885 73.359726 79.92556 86.527336 93.189018 96.519859 100.50968 107.17136 110.5022 117.49937 120.83022 127.4919"
           y="14.378908"
           id="tspan194">Focus on VR &amp; Heritage (n = 1)</tspan></text>
      <g
         id="g198">
        <path
           d="m 54.633,482.148 h 251.605 v 71.887 H 54.633 Z"
           style="fill:none;stroke:#000000;stroke-width:0.99844;stroke-linecap:butt;stroke-linejoin:miter;stroke-miterlimit:4;stroke-dasharray:none;stroke-opacity:1"
           id="path200" />
      </g>
      <text
         xml:space="preserve"
         transform="translate(98.863281,500.11721)"
         style="font-variant:normal;font-weight:normal;font-size:11.9814px;font-family:'Nimbus Sans';-inkscape-font-specification:NimbusSans-Regular;writing-mode:lr-tb;fill:#000000;fill-opacity:1;fill-rule:nonzero;stroke:none"
         id="text210"><tspan
           x="0 8.6506033 15.204453 23.855057 27.185898 33.140678 36.423592 43.085278 49.74696 52.406841 59.008617 64.999336 68.330177 70.990059 77.651749 83.642471 86.302345 92.964035 99.625717 106.2874 112.94908 116.27992 118.9398 125.60149 128.93233 132.81432 139.29628 145.287 147.94688 154.48875"
           y="0"
           id="tspan202">New studies included in review</tspan><tspan
           x="64.093742 68.083565 74.745247 78.076096 85.073257 88.404099 95.065781"
           y="14.378908"
           id="tspan204">(n = 2)</tspan><tspan
           x="-3.3124981 5.2182908 11.879974 18.541658 25.203341 29.516661 32.847504 38.838226 42.169067 48.83075 52.161591 55.492435 62.154118 68.695984 77.346588 80.677429 83.337311 89.998993 95.989716 98.649597 105.31128 111.97297 118.63465 125.29633 128.62717 134.61789 137.87685 144.53853 151.20021 153.86009 160.47386"
           y="28.757816"
           id="tspan206">Reports of new included studies</tspan><tspan
           x="60.761719 64.751541 71.413223 74.744064 81.741226 85.072067 91.733749 98.395439"
           y="43.13282"
           id="tspan208">(n = 10)</tspan></text>
    </g>
  </g>
</svg>
